<?xml version="1.0" standalone="no"?>
<!DOCTYPE svg PUBLIC "-//W3C//DTD SVG 20010904//EN"
 "http://www.w3.org/TR/2001/REC-SVG-20010904/DTD/svg10.dtd">
<svg version="1.0" xmlns="http://www.w3.org/2000/svg"
 width="283.000000pt" height="400.000000pt" viewBox="0 0 283.000000 400.000000"
 preserveAspectRatio="xMidYMid meet">

<g transform="translate(0.000000,400.000000) scale(0.100000,-0.100000)"
fill="#000000" stroke="none">
<path d="M1200 3205 l-205 -205 -292 0 -293 0 0 -292 0 -293 -207 -207 -208
-208 208 -208 207 -207 0 -293 0 -292 293 0 292 0 210 -210 210 -210 210 210
210 210 293 0 292 0 0 292 0 293 207 207 208 208 -208 208 -207 207 0 293 0
292 -293 0 -292 0 -205 205 c-113 113 -209 205 -215 205 -6 0 -102 -92 -215
-205z m853 -305 l267 0 0 -267 0 -268 185 -185 185 -185 -185 -185 -185 -185
0 -262 0 -263 -263 0 -262 0 -185 -185 c-102 -102 -189 -185 -195 -185 -6 0
-93 83 -195 185 l-185 185 -262 0 -263 0 0 262 0 263 -185 185 -185 185 185
185 185 185 0 267 0 268 268 0 267 0 185 185 185 185 185 -185 185 -185 268 0z"/>
<path d="M1361 2845 c-13 -30 -26 -55 -29 -55 -4 0 -20 20 -35 45 -16 25 -33
45 -38 45 -5 0 -9 -28 -9 -62 0 -35 -3 -73 -6 -85 -5 -18 -2 -23 13 -23 16 0
18 6 15 40 -5 49 6 51 36 4 26 -40 30 -39 54 19 16 43 24 39 30 -13 3 -21 9
-25 44 -28 35 -3 42 0 52 23 17 38 53 31 66 -12 6 -22 15 -33 27 -33 11 0 19
3 19 8 -1 25 -47 166 -55 169 -6 1 -30 -31 -53 -72 -24 -41 -47 -75 -51 -75
-5 0 -16 36 -25 80 -10 44 -21 80 -25 80 -4 0 -18 -25 -30 -55z m179 -35 c0
-5 -4 -10 -10 -10 -5 0 -10 5 -10 10 0 6 5 10 10 10 6 0 10 -4 10 -10z"/>
<path d="M1635 2803 c-21 -77 -32 -103 -45 -103 -5 0 -10 -5 -10 -11 0 -6 12
-9 28 -7 24 3 30 11 53 83 19 57 23 82 15 87 -20 14 -24 9 -41 -49z"/>
<path d="M1070 2820 c0 -6 9 -28 20 -50 l20 -39 -65 24 c-36 14 -70 25 -75 25
-7 0 53 -144 66 -159 3 -3 9 0 15 6 8 8 4 23 -11 53 -25 49 -26 49 68 11 28
-11 52 -17 52 -13 0 22 -66 152 -77 152 -7 0 -13 -5 -13 -10z"/>
<path d="M1701 2784 c-49 -62 -8 -144 71 -144 81 0 119 92 62 145 -39 36 -105
35 -133 -1z m93 0 c27 -10 37 -39 25 -73 -14 -40 -39 -54 -72 -42 -33 13 -42
43 -23 80 19 37 39 47 70 35z"/>
<path d="M900 2725 c-9 -11 -3 -27 35 -79 30 -43 51 -63 61 -59 21 8 19 12
-35 86 -40 55 -51 64 -61 52z"/>
<path d="M1884 2693 c-69 -85 -68 -82 -54 -98 10 -12 15 -10 36 13 l25 27 -3
-43 c-2 -29 3 -47 15 -59 16 -16 17 -14 17 35 0 48 2 52 23 52 54 0 61 43 14
88 l-33 32 -40 -47z m69 -17 c7 -18 -1 -26 -25 -26 -21 0 -23 11 -6 28 16 16
25 15 31 -2z"/>
<path d="M787 2631 l-42 -40 60 -61 60 -61 38 40 c47 51 50 90 8 132 -41 40
-72 38 -124 -10z m109 -36 c15 -23 15 -27 0 -50 -9 -14 -20 -25 -24 -25 -4 0
-25 17 -46 39 l-37 38 26 21 c31 25 54 18 81 -23z"/>
<path d="M1986 2564 l-60 -54 30 -33 c16 -17 30 -34 32 -36 1 -3 8 1 14 7 9 9
7 16 -7 32 -15 16 -16 22 -5 35 12 14 15 13 35 -5 28 -26 46 -8 20 20 -17 19
-13 40 6 40 6 0 19 -10 29 -22 17 -21 19 -22 26 -5 4 13 -2 27 -22 48 -15 16
-30 29 -33 29 -3 -1 -33 -26 -65 -56z"/>
<path d="M689 2508 c-17 -14 -53 -68 -47 -72 2 -1 31 -20 65 -42 35 -21 63
-42 63 -46 0 -5 -40 -8 -89 -8 -50 0 -92 -4 -95 -8 -3 -5 26 -39 63 -76 54
-54 70 -64 75 -51 3 10 -3 24 -18 38 -33 30 -20 67 23 67 22 0 34 8 50 33 l21
32 -28 22 -27 23 42 0 c33 0 45 5 54 22 11 20 10 21 -35 15 -40 -6 -46 -4 -46
12 0 19 -29 51 -46 51 -6 0 -17 -6 -25 -12z m37 -43 c3 -8 3 -19 -1 -24 -9
-15 -44 9 -38 26 7 17 32 17 39 -2z"/>
<path d="M2068 2467 l-66 -42 25 -42 c16 -28 29 -40 39 -36 13 5 13 8 -1 29
-8 13 -15 26 -15 29 0 3 25 21 56 41 50 32 63 53 38 61 -5 1 -39 -17 -76 -40z"/>
<path d="M1481 2481 c-8 -5 -12 -18 -9 -29 5 -16 1 -22 -16 -24 -17 -2 -21
-10 -21 -38 0 -30 3 -35 26 -38 17 -2 29 -11 32 -23 4 -14 14 -19 36 -19 25 0
31 -4 31 -21 0 -19 -4 -20 -42 -13 -94 17 -176 0 -236 -46 l-26 -21 -18 35
c-21 40 -25 71 -14 104 9 28 -16 30 -43 3 -16 -16 -21 -17 -42 -5 -13 7 -30
13 -36 14 -16 0 -17 -34 -2 -62 9 -16 7 -23 -10 -35 -19 -13 -32 -70 -13 -61
81 42 104 42 136 -3 13 -19 13 -25 -5 -58 -10 -19 -19 -42 -19 -50 0 -12 -3
-12 -12 -3 -7 7 -32 12 -57 11 -43 0 -44 -1 -21 -12 14 -6 31 -20 38 -29 7
-10 22 -18 32 -18 12 0 21 -10 25 -29 3 -16 19 -49 34 -73 51 -80 157 -110
246 -69 47 21 66 41 91 96 17 35 92 105 114 105 15 0 21 -77 10 -121 -16 -57
-36 -98 -67 -131 l-26 -27 -29 22 c-27 20 -31 20 -56 6 -18 -9 -30 -28 -36
-52 -7 -28 -16 -39 -35 -44 -31 -8 -121 10 -170 34 -32 16 -37 23 -42 67 -7
60 -37 90 -84 82 -26 -4 -38 2 -84 44 -30 28 -49 50 -43 50 17 0 15 35 -4 51
-11 9 -20 10 -32 2 -12 -7 -22 -7 -34 1 -13 8 -21 6 -36 -7 -12 -11 -35 -17
-66 -17 -47 0 -126 -31 -126 -50 0 -13 37 -13 45 0 4 6 24 -6 48 -30 l42 -40
3 26 c2 15 -4 34 -14 46 -18 19 -18 19 21 16 36 -3 39 -5 40 -33 0 -25 4 -30
25 -30 14 0 28 -4 32 -9 3 -5 19 -4 37 4 38 15 43 11 128 -93 55 -67 57 -70
54 -125 -1 -31 -7 -62 -13 -69 -15 -19 9 -55 32 -48 15 5 22 -2 34 -28 15 -37
54 -57 112 -57 37 0 46 15 15 25 -11 3 -34 28 -50 55 -17 28 -35 50 -41 50 -5
0 -10 11 -10 25 0 21 -5 25 -30 25 -30 0 -36 11 -24 43 4 12 16 10 67 -11 45
-18 83 -25 137 -27 59 -1 83 -6 110 -24 29 -18 44 -21 86 -17 41 5 53 3 58 -9
7 -19 55 -19 62 0 4 8 17 15 31 15 21 0 24 4 21 33 -2 23 -8 32 -20 31 -13 -1
-18 5 -18 22 0 20 -5 24 -30 24 -20 0 -30 -5 -30 -15 0 -9 -11 -20 -25 -25
-15 -6 -25 -17 -25 -29 0 -10 -9 -21 -20 -24 -23 -6 -90 10 -90 21 0 4 25 22
55 40 98 59 148 151 148 270 0 64 2 72 19 72 24 0 58 -18 58 -30 0 -6 -7 -10
-16 -10 -10 0 -14 -7 -12 -22 2 -17 9 -22 26 -21 14 2 22 -3 22 -12 0 -8 16
-29 36 -47 20 -18 40 -42 45 -53 6 -16 8 -12 8 18 l1 37 68 0 c66 0 121 18
167 53 18 14 16 14 -28 4 -71 -16 -142 2 -231 59 -55 34 -72 50 -69 64 3 9 -7
30 -21 46 -23 27 -25 27 -19 6 6 -27 -21 -62 -48 -62 -10 0 -23 10 -30 23 -6
12 -28 39 -48 61 -24 25 -32 40 -23 43 7 3 19 11 27 19 7 8 24 18 37 23 21 8
20 9 -15 16 -41 8 -77 -13 -77 -44 0 -35 -18 8 -23 57 -6 47 -4 52 14 52 17 0
20 6 17 38 -3 31 -7 37 -28 40 -15 2 -30 12 -35 25 -11 24 -42 33 -64 18z
m-69 -261 c-11 -73 74 -96 134 -36 l33 33 33 -27 c36 -30 75 -90 59 -90 -5 0
-30 -16 -55 -35 l-46 -35 -11 27 c-23 61 -80 89 -144 72 -77 -21 -102 -119
-47 -181 25 -27 36 -31 75 -31 26 0 47 -2 47 -3 0 -2 -14 -11 -32 -20 -45 -23
-117 -14 -162 20 -52 39 -57 55 -40 106 8 24 14 68 13 96 -3 63 8 79 76 110
65 31 72 30 67 -6z m114 20 c26 -10 26 -11 8 -31 -47 -52 -119 -40 -98 16 9
23 26 18 19 -6 -6 -17 -3 -20 12 -17 10 2 19 13 21 26 4 26 3 25 38 12z m-295
-207 c-9 -15 -10 -13 -11 12 0 17 4 41 8 55 6 23 7 21 10 -12 2 -21 -1 -46 -7
-55z m277 44 c12 -13 25 -37 28 -54 6 -28 3 -34 -27 -52 -93 -57 -182 21 -118
103 27 35 86 36 117 3z m-538 -87 c0 -5 -4 -10 -10 -10 -5 0 -10 5 -10 10 0 6
5 10 10 10 6 0 10 -4 10 -10z m217 -118 c15 -9 28 -62 16 -62 -10 0 -44 35
-57 58 -8 13 21 17 41 4z m373 -92 c0 -17 -32 -40 -56 -40 -9 0 -3 37 8 48 19
19 48 15 48 -8z m150 -80 c0 -5 -4 -10 -10 -10 -5 0 -10 5 -10 10 0 6 5 10 10
10 6 0 10 -4 10 -10z"/>
<path d="M2135 2359 c-38 -16 -71 -31 -72 -33 -8 -7 34 -86 46 -86 13 0 12 14
-4 53 -4 9 -3 17 3 17 5 0 35 11 66 25 40 18 54 29 50 40 -8 19 -7 20 -89 -16z"/>
<path d="M2210 2248 c-19 -5 -51 -13 -71 -19 l-36 -9 10 -45 c12 -53 38 -63
35 -13 -3 28 1 34 20 36 18 3 22 -1 22 -23 0 -17 5 -25 13 -22 6 2 11 15 11
28 -1 22 11 38 27 39 3 0 10 -13 15 -30 6 -19 13 -27 21 -22 9 5 9 18 0 50
-12 45 -13 45 -67 30z"/>
<path d="M552 2203 c2 -11 25 -21 77 -34 44 -10 80 -24 88 -35 12 -16 13 -16
13 8 0 35 -14 44 -93 62 -85 20 -89 20 -85 -1z"/>
<path d="M2201 1777 c-68 -53 -78 -68 -66 -103 14 -39 35 -43 35 -7 0 19 9 38
25 53 14 13 25 18 25 12 0 -11 -49 -142 -57 -151 -2 -3 -26 3 -53 13 -27 10
-54 16 -60 14 -18 -6 20 -48 43 -48 41 0 52 -14 37 -50 -10 -24 -18 -30 -32
-27 -24 7 -21 -21 3 -36 27 -17 47 -1 80 65 28 55 109 278 109 300 0 19 -39 4
-89 -35z"/>
<path d="M640 1782 c-31 -15 -35 -22 -38 -63 -3 -54 21 -91 71 -110 22 -8 42
-28 65 -65 18 -30 37 -54 42 -54 5 0 25 14 45 31 36 32 48 66 19 55 -9 -3 -20
-6 -25 -6 -5 0 -9 -7 -9 -15 0 -8 -4 -15 -9 -15 -10 0 -56 69 -50 74 2 2 51
19 109 38 97 33 103 36 78 46 -21 9 -46 5 -134 -23 -100 -31 -111 -33 -132
-19 -55 36 -44 108 19 121 16 3 32 10 35 14 9 16 -50 10 -86 -9z"/>
<path d="M663 1503 c-4 -9 -1 -19 5 -21 7 -2 12 -10 12 -18 0 -8 7 -14 15 -14
8 0 15 9 15 20 0 11 -4 20 -10 20 -5 0 -10 7 -10 15 0 20 -19 19 -27 -2z"/>
<path d="M1830 1460 c0 -5 -7 -10 -15 -10 -8 0 -15 -7 -15 -15 0 -8 9 -15 20
-15 11 0 20 5 20 10 0 6 7 10 15 10 8 0 15 7 15 15 0 8 -9 15 -20 15 -11 0
-20 -4 -20 -10z"/>
<path d="M1977 1440 c3 -11 16 -23 29 -26 19 -5 21 -9 12 -23 -6 -10 -20 -23
-30 -30 -17 -10 -25 -7 -59 24 -45 40 -60 41 -73 2 -13 -37 3 -80 32 -87 23
-5 23 -5 -6 -22 -16 -10 -41 -22 -56 -28 -26 -10 -28 -8 -56 56 -17 36 -30 77
-30 90 0 17 -6 24 -20 24 -11 0 -20 -4 -20 -10 0 -5 -7 -7 -15 -4 -10 4 -15 0
-15 -15 0 -14 6 -21 20 -21 11 0 20 5 20 10 0 6 5 10 10 10 18 0 11 -60 -11
-89 -11 -16 -19 -39 -17 -52 3 -21 8 -24 47 -25 25 0 47 -6 49 -12 8 -25 54
-10 139 47 105 71 156 121 147 144 -7 19 -65 57 -87 57 -10 0 -13 -6 -10 -20z
m-68 -79 c9 -6 10 -11 2 -15 -13 -8 -31 1 -31 15 0 11 11 11 29 0z m-159 -86
c0 -8 -4 -15 -10 -15 -5 0 -10 7 -10 15 0 8 5 15 10 15 6 0 10 -7 10 -15z"/>
<path d="M757 1434 c-4 -4 -7 -22 -7 -39 0 -47 40 -80 97 -80 38 0 49 5 74 33
32 36 41 89 13 78 -9 -3 -18 -6 -20 -6 -2 0 -4 -9 -4 -19 0 -70 -112 -64 -136
7 -5 18 -13 29 -17 26z"/>
<path d="M1448 1374 c-14 -16 -16 -34 -10 -134 l7 -115 49 -3 c27 -2 54 2 59
7 6 6 33 11 59 11 33 0 50 5 54 14 8 22 -24 75 -53 89 -21 9 -27 8 -39 -8 -8
-10 -14 -26 -14 -35 0 -25 -21 -40 -57 -40 l-32 0 -3 116 c-3 109 -4 115 -20
98z m168 -192 c-22 -5 -30 3 -21 18 5 8 11 7 22 -2 15 -12 14 -13 -1 -16z"/>
<path d="M2113 1343 c-7 -2 -13 -11 -13 -19 0 -8 -4 -14 -10 -14 -5 0 -10 -7
-10 -15 0 -8 9 -15 20 -15 11 0 20 6 20 14 0 8 7 16 15 20 8 3 12 12 9 21 -6
16 -11 17 -31 8z"/>
<path d="M1046 1321 c-13 -14 -17 -31 -14 -56 3 -28 0 -39 -14 -46 -27 -15
-70 9 -90 51 l-18 35 0 -38 c0 -72 74 -111 135 -71 17 11 29 13 42 6 21 -11
255 -82 271 -82 22 0 16 34 -13 68 -84 99 -113 113 -150 72 -18 -20 -17 -20
17 -20 24 0 42 -8 58 -25 30 -32 18 -32 -88 0 -77 24 -83 28 -76 48 4 12 8 33
8 47 1 33 -42 40 -68 11z m34 -42 c0 -11 -4 -17 -10 -14 -5 3 -10 13 -10 21 0
8 5 14 10 14 6 0 10 -9 10 -21z"/>
<path d="M1201 1126 c-9 -11 -10 -20 -1 -35 13 -25 23 -26 40 -5 11 13 10 18
-7 35 -17 18 -21 18 -32 5z"/>
</g>
</svg>
